<svg version="1.1" viewBox="0.0 0.0 960.0 540.0" fill="none" stroke="none" stroke-linecap="square" stroke-miterlimit="10" xmlns:xlink="http://www.w3.org/1999/xlink" xmlns="http://www.w3.org/2000/svg"><clipPath id="p.0"><path d="m0 0l960.0 0l0 540.0l-960.0 0l0 -540.0z" clip-rule="nonzero"/></clipPath><g clip-path="url(#p.0)"><path fill="#000000" fill-opacity="0.0" d="m0 0l960.0 0l0 540.0l-960.0 0z" fill-rule="evenodd"/><path fill="#ffffff" d="m943.68506 121.244095l0 0c0 -38.868668 -31.509277 -70.37795 -70.37799 -70.37795l-84.183716 0l0 0l-231.84253 0l-470.5879 0c-18.665398 0 -36.566303 7.4147987 -49.764732 20.613228c-13.198425 13.198425 -20.613224 31.099335 -20.613224 49.764725l0 175.94487l0 0l0 105.566956l0 0c0 38.868652 31.509281 70.37793 70.37796 70.37793l470.5879 0l115.91821 52.783447l115.92432 -52.783447l84.183716 0c38.868713 0 70.37799 -31.509277 70.37799 -70.37793l0 0l0 -105.566956l0 0z" fill-rule="evenodd"/><path stroke="#000000" stroke-width="2.4000000640789043" stroke-linejoin="round" stroke-linecap="butt" d="m938.885 121.244095l0 0c0 -4.610138 -0.44226074 -8.871529 -1.3323364 -13.2213745c-0.8886719 -4.3427963 -2.1291504 -8.307472 -3.8191528 -12.30307c-1.6884155 -3.9919739 -3.644226 -7.583351 -6.045288 -11.137466c-2.4002686 -3.5527573 -4.988037 -6.6862335 -8.010498 -9.70871c-3.022461 -3.0224686 -6.156006 -5.610298 -9.70874 -8.01049c-3.5541382 -2.4011078 -7.145447 -4.356907 -11.137451 -6.0453644c-3.9956055 -1.6899834 -7.960205 -2.93042 -12.303101 -3.8190918c-4.3498535 -0.8901062 -8.611206 -1.332386 -13.2213745 -1.332386l-84.183716 0l0 0l-231.84253 0l-470.5879 0c-2.2134628 0 -4.2974243 0.104011536 -6.481735 0.32089233c-2.1834564 0.21680069 -4.231987 0.523098 -6.3715744 0.9507828c-2.1390533 0.42757797 -4.1385956 0.9304619 -6.2189484 1.5629005c-2.0800858 0.63235474 -4.0168533 1.3261375 -6.023342 2.1572495c-2.0064926 0.8311157 -3.866562 1.7100372 -5.7845535 2.7337456c-1.918232 1.0238304 -3.6877174 2.0821266 -5.502598 3.2923164c-1.8153343 1.210495 -3.480442 2.4424438 -5.177681 3.833084c-1.6979027 1.391182 -3.2450333 2.791214 -4.8101845 4.356369c-1.565155 1.565155 -2.965187 3.1122818 -4.356373 4.8101883c-1.3906403 1.6972351 -2.6225815 3.3623428 -3.8330803 5.177681c-1.2101974 1.8148804 -2.2684917 3.5843582 -3.2923183 5.5025864c-1.0237064 1.9179993 -1.902628 3.7780685 -2.7337437 5.784561c-0.8311157 2.0064926 -1.5248928 3.9432602 -2.1572514 6.0233536c-0.63243675 2.0803375 -1.1353207 4.0798798 -1.5629005 6.2189407c-0.42768478 2.1395874 -0.7339802 4.1881104 -0.95077705 6.371567c-0.2168827 2.1843185 -0.32089424 4.26828 -0.32089424 6.481735l0 175.94487l0 0l0 105.566956l0 0c0 4.6101685 0.44227982 8.871521 1.3323822 13.221313c0.8886795 4.342865 2.1291142 8.307556 3.819086 12.303101c1.6884727 3.9920044 3.6442642 7.583374 6.045372 11.137512c2.4001846 3.5527344 4.987999 6.6861877 8.010494 9.708679c3.0224953 3.0224915 6.155964 5.610321 9.708706 8.010498c3.5541039 2.4010925 7.1454964 4.356903 11.137482 6.0453796c3.9955406 1.6899414 7.960247 2.9303894 12.303097 3.8190613c4.3498306 0.8901062 8.611176 1.3323975 13.221336 1.3323975l470.5879 0c0.6862793 0 1.364624 0.14715576 1.9891968 0.43154907l113.92908 51.877716l113.93518 -51.877747c0.62457275 -0.2843628 1.3028564 -0.43151855 1.9890747 -0.43151855l84.183716 0c4.6101685 0 8.871521 -0.44229126 13.2213745 -1.3323975c4.3428955 -0.8886719 8.307495 -2.1291199 12.303101 -3.8190613c3.9919434 -1.6884766 7.583313 -3.6442566 11.137451 -6.0453796c3.5527344 -2.400177 6.6862793 -4.988037 9.70874 -8.010498c3.022461 -3.0224915 5.6102295 -6.155945 8.010498 -9.708679c2.401062 -3.5541382 4.3568726 -7.145508 6.045288 -11.137482c1.6900024 -3.9956055 2.930481 -7.9602966 3.8191528 -12.303101c0.8900757 -4.349823 1.3323364 -8.611206 1.3323364 -13.221344l0 0l0 -105.566956l0 0z" fill-rule="nonzero"/><path stroke="#000000" stroke-width="7.200000512631234" stroke-linejoin="round" stroke-linecap="butt" d="m946.085 121.244095l0 0c0 -4.982811 -0.517395 -9.967506 -1.4785156 -14.664734c-0.96191406 -4.70076 -2.4157104 -9.347328 -4.241699 -13.664452c-1.8267212 -4.318947 -4.1168823 -8.524193 -6.7105103 -12.363335c-2.5941772 -3.8398209 -5.6206665 -7.504532 -8.885376 -10.769264c-3.2647095 -3.2647247 -6.9295044 -6.2912827 -10.769287 -8.885414c-3.8391724 -2.5936775 -8.044373 -4.8837624 -12.363342 -6.710518c-4.3171997 -1.8260002 -8.963684 -3.2797775 -13.664429 -4.241684c-4.6972656 -0.9611969 -9.681946 -1.4785538 -14.664795 -1.4785538l-84.183716 0l0 0l-231.84253 0l-470.5879 0c-2.393036 0 -4.832901 0.12177658 -7.1931305 0.35612488c-2.3606567 0.23439789 -4.7593307 0.5930443 -7.07148 1.0552216c-2.312416 0.46223068 -4.653595 1.0510406 -6.901848 1.73452c-2.2483711 0.68351364 -4.5158844 1.4957733 -6.6844597 2.394024c-2.168583 0.8982582 -4.3463097 1.9272766 -6.4194717 3.033802c-2.07304 1.1064606 -4.1448517 2.3455734 -6.1068306 3.6538467c-1.9617424 1.3081284 -3.9114609 2.7506447 -5.746437 4.2541428c-1.8346481 1.5032272 -3.646 3.1423645 -5.338131 4.834488c-1.6921272 1.692131 -3.3312645 3.503479 -4.83449 5.338135c-1.5034981 1.8349686 -2.9460144 3.7846909 -4.254139 5.746437c-1.3082771 1.9619675 -2.547392 4.033783 -3.6538486 6.106827c-1.1065235 2.073166 -2.1355438 4.250885 -3.0338001 6.4194717c-0.8982563 2.168579 -1.7105103 4.436096 -2.3940277 6.6844635c-0.6834793 2.2482452 -1.2722855 4.589424 -1.734518 6.901848c-0.46217918 2.3121414 -0.8208275 4.7108154 -1.0552177 7.071472c-0.2343502 2.3602295 -0.3561268 4.800102 -0.3561268 7.1931305l0 175.94487l0 0l0 105.566956l0 0c0 4.982788 0.5173578 9.967529 1.4785528 14.664734c0.9619074 4.700714 2.4156828 9.347321 4.241683 13.664459c1.8267555 4.318939 4.1168423 8.52417 6.710518 12.363342c2.5941353 3.8398132 5.620699 7.5045166 8.885414 10.769226c3.264717 3.2647095 6.9294395 6.2912903 10.769264 8.885437c3.8391533 2.593689 8.044388 4.8837585 12.363323 6.7105103c4.3171577 1.8259888 8.963722 3.2797546 13.664444 4.2416687c4.6972427 0.96121216 9.681953 1.4785461 14.664757 1.4785461l470.0672 0l115.444336 52.56772c0.6317749 0.2876587 1.3572388 0.2876587 1.9890747 0l115.4505 -52.56772l83.663025 0c4.982849 0 9.967529 -0.517334 14.664795 -1.4785461c4.7007446 -0.96191406 9.347229 -2.41568 13.664429 -4.2416687c4.3189697 -1.8267822 8.524109 -4.1168213 12.363342 -6.7105103c3.8397827 -2.5941467 7.5045776 -5.6207275 10.769287 -8.885437c3.2647095 -3.2647095 6.2911987 -6.929413 8.885376 -10.769226c2.593628 -3.8391724 4.883789 -8.044403 6.7105103 -12.363373c1.8259888 -4.317108 3.2797852 -8.963684 4.241699 -13.664459c0.9611206 -4.6972046 1.4785156 -9.681885 1.4785156 -14.664703l0 0l0 -105.566956l0 0z" fill-rule="nonzero"/></g></svg>